<svg xmlns="http://www.w3.org/2000/svg" width="1440" height="2380" viewBox="0 0 1440 2380">
  <defs>
    <style>
      .bg { fill: #eef6ff; }
      .page { fill: #f7fbff; stroke: #d7e6f7; }
      .surface { fill: #fff; stroke: #d9e2ec; }
      .soft { fill: #f4f7fb; stroke: #d9e2ec; }
      .soft2 { fill: #eef2f7; }
      .blue { fill: #1677ff; }
      .blueSoft { fill: #e8f2ff; stroke: #b8d8ff; }
      .greenSoft { fill: #eaf8f0; stroke: #b7e4c7; }
      .redSoft { fill: #fff0f0; stroke: #ffc7c7; }
      .text1 { fill: #1f2937; font: 600 16px "PingFang SC", "Inter", Arial, sans-serif; }
      .text2 { fill: #374151; font: 500 13px "PingFang SC", "Inter", Arial, sans-serif; }
      .text3 { fill: #6b7280; font: 400 12px "PingFang SC", "Inter", Arial, sans-serif; }
      .caption { fill: #6b7280; font: 400 11px "PingFang SC", "Inter", Arial, sans-serif; }
      .h1 { fill: #111827; font: 700 22px "PingFang SC", "Inter", Arial, sans-serif; }
      .h2 { fill: #111827; font: 700 18px "PingFang SC", "Inter", Arial, sans-serif; }
      .mono { fill: #374151; font: 400 12px "SFMono-Regular", Consolas, monospace; }
      .pillText { fill: #1d4ed8; font: 600 12px "PingFang SC", "Inter", Arial, sans-serif; }
      .state { fill: #0f172a; font: 700 15px "PingFang SC", "Inter", Arial, sans-serif; }
      .note { fill: #475569; font: 400 12px "PingFang SC", "Inter", Arial, sans-serif; }
      .line { stroke: #d9e2ec; stroke-width: 1; }
      .dash { stroke: #a7b4c4; stroke-width: 1; stroke-dasharray: 5 5; }
      .shadow { filter: drop-shadow(0 10px 22px rgba(22, 119, 255, .08)); }
    </style>
  </defs>

  <rect class="bg" width="1440" height="2380"/>
  <text x="48" y="48" class="h1">右侧资料工作区整合设计提案</text>
  <text x="48" y="76" class="note">约束：不画全局一级顶栏，不画返回；只使用当前原型已有能力：文件/结果目录、预览、引用、下载、更多、收起、全屏。</text>

  <!-- State 1 -->
  <g transform="translate(48 116)">
    <text x="0" y="0" class="state">状态 1：默认展开态 · 目录与预览同屏</text>
    <rect x="0" y="20" width="1344" height="610" rx="10" class="page shadow"/>

    <!-- left sidebar -->
    <rect x="0" y="20" width="200" height="610" rx="10" fill="#f8fafc" stroke="#d9e2ec"/>
    <rect x="18" y="42" width="30" height="30" rx="7" class="blue"/>
    <text x="58" y="61" class="text1">浙江审计综合分析</text>
    <text x="58" y="80" class="caption">Audit Analytics</text>
    <text x="22" y="124" class="text2">＋ 新建会话</text>
    <text x="22" y="160" class="text2">＋ 新建任务</text>
    <text x="22" y="196" class="text2">⌕ 搜索</text>
    <text x="22" y="232" class="text2">▣ 技能</text>
    <text x="18" y="286" class="caption">A市城建集团年度经济责任审计</text>
    <rect x="12" y="304" width="176" height="34" rx="7" fill="#e9eef5"/>
    <text x="26" y="326" class="text2">总结当前工作台中的主...</text>
    <text x="22" y="370" class="text2">任务</text>
    <text x="38" y="402" class="text3">往来函证抽样核对</text>
    <text x="38" y="436" class="text3">采购异常专项扫描</text>
    <text x="22" y="604" class="text2">⚙ 设置</text>

    <!-- center chat: no global header -->
    <rect x="200" y="20" width="538" height="610" fill="#fff" stroke="#d9e2ec"/>
    <text x="224" y="56" class="text1">总结当前工作台中的主要疑点</text>
    <text x="622" y="56" class="caption">生成技能</text>
    <line x1="200" y1="76" x2="738" y2="76" class="line"/>
    <rect x="464" y="98" width="230" height="36" rx="18" class="blueSoft"/>
    <text x="493" y="121" class="text2">总结当前工作台中的主要疑点</text>
    <text x="224" y="174" class="text3">优先梳理资料范围与明显差异，输出可追溯的疑点与证据链。</text>
    <text x="224" y="210" class="text2">✓ 阅读《银行流水-解析失败.xlsx》 L10-L30</text>
    <text x="224" y="248" class="text2">✓ 查询 尾款、付款节点、合同 50%</text>
    <text x="224" y="286" class="text2">✕ 查询 应付款账龄、银行流水、实际支付日期</text>
    <text x="224" y="338" class="text3">结果已经生成结构化中间结果，风险点、证据引用与后续核查建议已整理。</text>
    <rect x="224" y="372" width="470" height="78" rx="8" class="soft"/>
    <text x="244" y="402" class="text2">审计备忘录-疑点摘录.md</text>
    <text x="244" y="430" class="greenSoft pillText">+2</text>
    <text x="282" y="430" class="redSoft pillText">-1</text>
    <rect x="286" y="558" width="386" height="48" rx="14" fill="#fff" stroke="#cfd8e3"/>
    <text x="306" y="588" class="text3">输入问题；@ 引用资料或结果，/ 选择技能</text>

    <!-- integrated workspace -->
    <rect x="738" y="20" width="560" height="610" fill="#f4f7fb" stroke="#d9e2ec"/>
    <rect x="738" y="20" width="560" height="52" fill="#fff" stroke="#d9e2ec"/>
    <rect x="758" y="31" width="188" height="30" rx="10" class="blueSoft"/>
    <text x="776" y="51" class="text2">银行流水-解析失败.xlsx</text>
    <text x="964" y="51" class="text2">总结当前工作台中的主要疑点</text>
    <text x="1195" y="51" class="text3">＋ 打开文件</text>
    <text x="1268" y="51" class="text3">收起</text>
    <text x="1312" y="51" class="text3">全屏</text>
    <rect x="738" y="72" width="560" height="42" fill="#fff"/>
    <text x="758" y="98" class="text3">工作台 › 文件 › 进度与验收 › 银行流水-解析失败.xlsx</text>
    <text x="1192" y="98" class="text3">引用</text>
    <text x="1236" y="98" class="text3">下载</text>
    <text x="1282" y="98" class="text3">更多</text>
    <line x1="738" y1="114" x2="1298" y2="114" class="line"/>

    <!-- directory -->
    <rect x="754" y="132" width="186" height="478" rx="8" class="surface"/>
    <rect x="766" y="146" width="70" height="26" rx="8" class="blueSoft"/>
    <text x="790" y="164" class="pillText">文件</text>
    <text x="854" y="164" class="text3">结果</text>
    <rect x="766" y="184" width="162" height="28" rx="7" fill="#f8fafc" stroke="#d9e2ec"/>
    <text x="780" y="202" class="caption">搜索目录</text>
    <text x="768" y="238" class="text3">⌄ 进度与验收</text>
    <rect x="766" y="252" width="162" height="34" rx="7" class="blueSoft"/>
    <text x="780" y="274" class="text2">银行流水-解析失败.xlsx</text>
    <text x="780" y="314" class="text3">现场签证照片.png</text>
    <text x="780" y="350" class="text3">整改说明.wps</text>
    <text x="768" y="392" class="text3">› 合同与发票</text>
    <text x="780" y="430" class="text3">合同抽取字段.json</text>
    <text x="780" y="466" class="text3">发票接口回执.xml</text>
    <text x="768" y="526" class="caption">目录可折叠；选择项直接在右侧打开页签</text>

    <!-- preview -->
    <rect x="952" y="132" width="326" height="478" rx="8" class="surface"/>
    <text x="974" y="166" class="h2">银行流水-解析失败.xlsx</text>
    <text x="974" y="192" class="caption">类型：表格文件 · 状态：未解析 · 最近更新 06-05 14:30</text>
    <line x1="974" y1="216" x2="1256" y2="216" class="line"/>
    <text x="974" y="248" class="text1">文件预览</text>
    <rect x="974" y="268" width="282" height="104" rx="6" fill="#fafafa" stroke="#d9e2ec"/>
    <text x="988" y="294" class="mono">日期       摘要        借方     贷方</text>
    <text x="988" y="322" class="mono">2026-04-21 尾款支付    -        500,000</text>
    <text x="988" y="350" class="mono">2026-04-23 保证金退回  30,000   -</text>
    <text x="974" y="412" class="text1">解析失败提示</text>
    <text x="974" y="440" class="text3">存在合并单元格与异常日期格式，需重跑解析或人工校正。</text>
    <rect x="974" y="488" width="84" height="28" rx="7" class="blueSoft"/>
    <text x="1002" y="506" class="pillText">引用</text>
    <rect x="1068" y="488" width="84" height="28" rx="7" class="soft"/>
    <text x="1096" y="506" class="text3">下载</text>
    <rect x="1162" y="488" width="84" height="28" rx="7" class="soft"/>
    <text x="1190" y="506" class="text3">更多</text>
  </g>

  <!-- State 2 -->
  <g transform="translate(48 802)">
    <text x="0" y="0" class="state">状态 2：目录收起态 · 预览优先阅读</text>
    <rect x="0" y="20" width="1344" height="610" rx="10" class="page shadow"/>
    <rect x="0" y="20" width="200" height="610" rx="10" fill="#f8fafc" stroke="#d9e2ec"/>
    <rect x="18" y="42" width="30" height="30" rx="7" class="blue"/>
    <text x="58" y="61" class="text1">浙江审计综合分析</text>
    <rect x="12" y="304" width="176" height="34" rx="7" fill="#e9eef5"/>
    <text x="26" y="326" class="text2">总结当前工作台中的主...</text>
    <rect x="200" y="20" width="458" height="610" fill="#fff" stroke="#d9e2ec"/>
    <text x="224" y="56" class="text1">总结当前工作台中的主要疑点</text>
    <line x1="200" y1="76" x2="658" y2="76" class="line"/>
    <text x="224" y="164" class="text3">对话区保持原工作流，不增加全局一级导航。</text>
    <rect x="286" y="558" width="306" height="48" rx="14" fill="#fff" stroke="#cfd8e3"/>
    <text x="306" y="588" class="text3">输入问题；@ 引用资料或结果</text>

    <rect x="658" y="20" width="640" height="610" fill="#f4f7fb" stroke="#d9e2ec"/>
    <rect x="658" y="20" width="640" height="52" fill="#fff" stroke="#d9e2ec"/>
    <rect x="678" y="31" width="220" height="30" rx="10" class="blueSoft"/>
    <text x="696" y="51" class="text2">总结当前工作台中的主要疑点.md</text>
    <text x="920" y="51" class="text2">银行流水-解析失败.xlsx</text>
    <text x="1160" y="51" class="text3">展开目录</text>
    <text x="1224" y="51" class="text3">全屏</text>
    <rect x="658" y="72" width="640" height="42" fill="#fff"/>
    <text x="678" y="98" class="text3">工作台 › 结果 › 审计结果 › 总结当前工作台中的主要疑点.md</text>
    <text x="1158" y="98" class="text3">引用</text>
    <text x="1202" y="98" class="text3">下载</text>
    <text x="1248" y="98" class="text3">更多</text>
    <line x1="658" y1="114" x2="1298" y2="114" class="line"/>

    <rect x="674" y="132" width="42" height="478" rx="8" class="surface"/>
    <text x="687" y="166" class="text2">文</text>
    <text x="687" y="210" class="text2">果</text>
    <line x1="716" y1="132" x2="716" y2="610" class="dash"/>
    <rect x="728" y="146" width="180" height="120" rx="8" fill="#fff" stroke="#b8d8ff"/>
    <text x="746" y="174" class="text2">临时展开目录</text>
    <text x="746" y="204" class="text3">✓ 总结当前工作台中的主要疑点</text>
    <text x="746" y="232" class="text3">银行流水-解析失败.xlsx</text>
    <text x="746" y="252" class="caption">点击固定展开</text>

    <rect x="730" y="132" width="548" height="478" rx="8" class="surface"/>
    <text x="760" y="168" class="h2">总结当前工作台中的主要疑点</text>
    <text x="760" y="194" class="caption">结果文件 · 来源：对话生成 · 已引用 3 项资料</text>
    <rect x="760" y="218" width="74" height="28" rx="7" class="blueSoft"/>
    <text x="786" y="236" class="pillText">引用</text>
    <rect x="844" y="218" width="74" height="28" rx="7" class="soft"/>
    <text x="870" y="236" class="text3">复制</text>
    <rect x="928" y="218" width="74" height="28" rx="7" class="soft"/>
    <text x="954" y="236" class="text3">下载</text>
    <line x1="760" y1="268" x2="1248" y2="268" class="line"/>
    <text x="760" y="308" class="text1">一、合同金额与已开发票差异</text>
    <text x="760" y="340" class="text3">合同金额与发票金额存在不一致，需核查补充协议与付款审批材料。</text>
    <text x="760" y="386" class="text1">二、尾款支付节点提前</text>
    <text x="760" y="418" class="text3">银行流水显示尾款支付早于验收节点，疑似存在审批流水与实际支付不一致。</text>
    <rect x="760" y="466" width="488" height="72" rx="6" fill="#fafafa" stroke="#d9e2ec"/>
    <text x="778" y="494" class="mono">证据引用：银行流水 L10-L30 / 合同付款条款 / 验收报告</text>
    <text x="778" y="522" class="mono">后续建议：补充 2024Q4 对账单及剩余发票复印件</text>
  </g>

  <!-- State 3 -->
  <g transform="translate(48 1488)">
    <text x="0" y="0" class="state">状态 3：全屏态 · 隐藏对话与左侧栏，专注审阅</text>
    <rect x="0" y="20" width="1344" height="760" rx="10" class="page shadow"/>
    <rect x="0" y="20" width="1344" height="54" fill="#fff" stroke="#d9e2ec"/>
    <rect x="24" y="32" width="232" height="30" rx="10" class="blueSoft"/>
    <text x="42" y="52" class="text2">总结当前工作台中的主要疑点.md</text>
    <text x="276" y="52" class="text2">银行流水-解析失败.xlsx</text>
    <text x="480" y="52" class="text2">现场签证照片.png</text>
    <text x="646" y="52" class="text3">＋ 打开文件</text>
    <text x="1128" y="52" class="text3">收起目录</text>
    <text x="1204" y="52" class="text3">退出全屏</text>
    <text x="1282" y="52" class="text3">更多</text>
    <rect x="0" y="74" width="1344" height="42" fill="#fff"/>
    <text x="24" y="100" class="text3">工作台 › 结果 › 审计结果 › 总结当前工作台中的主要疑点.md</text>
    <text x="1092" y="100" class="text3">已引用 3 项 · 已保存</text>
    <line x1="0" y1="116" x2="1344" y2="116" class="line"/>

    <rect x="20" y="136" width="288" height="624" rx="8" class="surface"/>
    <rect x="36" y="154" width="82" height="28" rx="8" class="blueSoft"/>
    <text x="64" y="173" class="pillText">文件</text>
    <text x="138" y="173" class="text3">结果</text>
    <rect x="36" y="196" width="252" height="30" rx="7" fill="#f8fafc" stroke="#d9e2ec"/>
    <text x="52" y="216" class="caption">搜索文件或结果</text>
    <text x="38" y="258" class="text3">⌄ 审计结果</text>
    <rect x="36" y="276" width="252" height="36" rx="7" class="blueSoft"/>
    <text x="52" y="299" class="text2">总结当前工作台中的主要疑点</text>
    <text x="52" y="342" class="text3">审计备忘录-疑点摘录.md</text>
    <text x="38" y="390" class="text3">⌄ 进度与验收</text>
    <text x="52" y="426" class="text3">银行流水-解析失败.xlsx</text>
    <text x="52" y="462" class="text3">现场签证照片.png</text>
    <text x="52" y="498" class="text3">整改说明.wps</text>

    <rect x="328" y="136" width="692" height="624" rx="8" class="surface"/>
    <text x="360" y="178" class="h1">总结当前工作台中的主要疑点</text>
    <text x="360" y="208" class="caption">生成时间：2026-06-05 14:30 · 来源：对话生成 · 状态：已完成</text>
    <rect x="360" y="236" width="78" height="30" rx="7" class="blueSoft"/>
    <text x="388" y="255" class="pillText">引用</text>
    <rect x="450" y="236" width="78" height="30" rx="7" class="soft"/>
    <text x="478" y="255" class="text3">复制</text>
    <rect x="540" y="236" width="78" height="30" rx="7" class="soft"/>
    <text x="568" y="255" class="text3">下载</text>
    <rect x="632" y="236" width="136" height="30" rx="7" class="greenSoft"/>
    <text x="654" y="255" class="text2">已复制引用</text>
    <line x1="360" y1="294" x2="988" y2="294" class="line"/>
    <text x="360" y="340" class="h2">材料页 001｜合同与付款差异</text>
    <text x="360" y="376" class="text3">合同金额、发票金额与付款流水存在口径差异，需补充对账单与审批说明。</text>
    <rect x="360" y="410" width="628" height="116" rx="6" fill="#fafafa" stroke="#d9e2ec"/>
    <text x="384" y="442" class="mono">风险点        证据来源                         建议</text>
    <text x="384" y="474" class="mono">尾款提前支付    银行流水 L10-L30                核查验收日期</text>
    <text x="384" y="506" class="mono">合同发票差异    合同付款条款 / 发票回执          补充发票复印件</text>
    <text x="360" y="580" class="h2">材料页 002｜验收节点与进度材料</text>
    <text x="360" y="616" class="text3">现场签证照片与验收报告存在时间差，需要回溯关联审批记录。</text>

    <rect x="1040" y="136" width="284" height="624" rx="8" class="surface"/>
    <text x="1060" y="174" class="text1">基本信息</text>
    <text x="1060" y="204" class="text3">类型：审计结果</text>
    <text x="1060" y="232" class="text3">创建人：审计员01</text>
    <text x="1060" y="260" class="text3">最近更新：06-05 14:30</text>
    <line x1="1060" y1="290" x2="1304" y2="290" class="line"/>
    <text x="1060" y="326" class="text1">引用资料</text>
    <text x="1060" y="356" class="text3">1. 银行流水-解析失败.xlsx</text>
    <text x="1060" y="386" class="text3">2. 合同抽取字段.json</text>
    <text x="1060" y="416" class="text3">3. 验收报告-资料-10.docx</text>
    <line x1="1060" y1="452" x2="1304" y2="452" class="line"/>
    <text x="1060" y="488" class="text1">历史版本</text>
    <text x="1060" y="518" class="text3">v3 当前版本</text>
    <text x="1060" y="548" class="text3">v2 补充证据引用</text>
    <text x="1060" y="578" class="text3">v1 初始生成</text>
  </g>
</svg>
